# xmcd
#
# Track frame offsets:
#	150
#	18427
#	31707
#	39653
#	59627
#	72970
#	87261
#	104272
#	123883
#	153526
#	169822
#
# Disc length: 2631 seconds
#
# Revision: 1
# Processed by: cddbd v1.5.2PL0 Copyright (c) Steve Scherf et al.
# Submitted via: audiograbber 1.83.01
#
DISCID=8b0a450b
DTITLE=John Fairhurst - Joys Of Spring
DYEAR=2009
DGENRE=Blues
TTITLE0=Obnox Stomp
TTITLE1=Passing Time
TTITLE2=Yew Tree Blues
TTITLE3=At The River
TTITLE4=Blues For Bill
TTITLE5=Shivver
TTITLE6=On The Run
TTITLE7=Friends
TTITLE8=How Far How Fast
TTITLE9=Dawn
TTITLE10=Joys Of Spring
EXTD=
EXTT0=
EXTT1=
EXTT2=
EXTT3=
EXTT4=
EXTT5=
EXTT6=
EXTT7=
EXTT8=
EXTT9=
EXTT10=
PLAYORDER=
